# xmcd
#
# Track frame offsets: 
#        182
#        13050
#        27687
#        42590
#        60042
#        76282
#        89912
#        104807
#        119697
#        134570
#        151130
#        166350
#        178552
#        192507
#        209527
#        226650
#        241607
#        257767
#        272550
#        289407
#        304177
#        319152
#
# Disc length: 4452 seconds
#
# Revision: 7
# Processed by: cddbd v1.5.2PL0 Copyright (c) Steve Scherf et al.
# Submitted via: ExactAudioCopy v1.0b1
#
DISCID=43116216
DTITLE=Various Artist - Contemporary Country Vol. 11 The Late '80s Pure Gold
DYEAR=1992
DGENRE=Country
TTITLE0=Dwight Yoakam And Buck Owens - Streets Of Bakersfield
TTITLE1=Patty Loveless - Blue Side Of Town
TTITLE2=Rodney Crowell - I Couldn't Leave You If I Tried
TTITLE3=Rosanne Cash - The Way We Make A Broken Heart
TTITLE4=Keith Whitley - Don't Close Your Eyes
TTITLE5=Shenandoah - The Church On Cumberland Road
TTITLE6=T. Graham Brown - Darlene
TTITLE7=Highway 101 - Somewhere Tonight
TTITLE8=Reba McEntire - The Last One To Know
TTITLE9=Randy Travis - Deeper Than The Holler
TTITLE10=Ricky Van Shelton - Living Proof
TTITLE11=Hank Williams Jr. - Born To Boogie
TTITLE12=Oak Ridge Boys - This Crazy Love
TTITLE13=Southern Pacific - New Shade Of Blue
TTITLE14=Tanya Tucker - Love Me Like You Used To
TTITLE15=Steve Wariner - I Got Dreams
TTITLE16=Judds - Change Of Heart
TTITLE17=Alabama - Song Of The South
TTITLE18=K.T. Oslin - Do Ya'
TTITLE19=Nitty Gritty Dirt Band - I've Been Lookin'
TTITLE20=Forester Sisters - (I'd Choose) You Again
TTITLE21=Michael Martin Murphey - A Long Line Of Love
EXTD=
EXTT0=
EXTT1=
EXTT2=
EXTT3=
EXTT4=
EXTT5=
EXTT6=
EXTT7=
EXTT8=
EXTT9=
EXTT10=
EXTT11=
EXTT12=
EXTT13=
EXTT14=
EXTT15=
EXTT16=
EXTT17=
EXTT18=
EXTT19=
EXTT20=
EXTT21=
PLAYORDER=
